<svg class="rotate" xmlns="http://www.w3.org/2000/svg" viewBox="0 0 1440 320"><path fill="#d4f4fd" fill-opacity="1" d="M0,160L26.7,160C53.3,160,107,160,160,170.7C213.3,181,267,203,320,192C373.3,181,427,139,480,149.3C533.3,160,587,224,640,234.7C693.3,245,747,203,800,197.3C853.3,192,907,224,960,245.3C1013.3,267,1067,277,1120,250.7C1173.3,224,1227,160,1280,154.7C1333.3,149,1387,203,1413,229.3L1440,256L1440,320L1413.3,320C1386.7,320,1333,320,1280,320C1226.7,320,1173,320,1120,320C1066.7,320,1013,320,960,320C906.7,320,853,320,800,320C746.7,320,693,320,640,320C586.7,320,533,320,480,320C426.7,320,373,320,320,320C266.7,320,213,320,160,320C106.7,320,53,320,27,320L0,320Z"></path></svg>